<svg xmlns="http://www.w3.org/2000/svg" xmlns:xlink="http://www.w3.org/1999/xlink" width="70" height="56" viewBox="0 0 70 56">
    <defs>
        <path id="a" d="M.024.808H47v34.503H.024z"/>
    </defs>
    <g fill="none" fill-rule="evenodd">
        <path fill="#FEFEFE" d="M10.884 41.963a15.792 15.792 0 0 1 2.052-1.92c.36.005.56-.166.572-.534.625-.805 1.413-1.3 2.424-1.555 2.305-.58 4.583-1.26 6.87-1.896.23-.05.46-.09.683-.145 10.937-2.851 21.874-5.713 32.814-8.547 3.664-.95 7.343-1.835 11.02-2.752.156.137.24.317.266.519-1.166.547-2.33 1.089-3.497 1.635-.202-.122-.291-.01-.353.167a79.725 79.725 0 0 1-6.12 2.812c-.29-.187-.44-.068-.506.237l-.696.295c-.456-.211-.798-.18-.875.414-3.702 1.695-7.424 3.348-11.22 4.828-.281-.184-.437-.08-.508.223-.236.112-.467.235-.705.34C36.903 38.68 30.65 41.15 24.37 43.55c-2.744 1.046-5.484 2.1-8.226 3.153-2.577.903-5.152 1.813-7.734 2.704-2.195.759-4.402 1.492-6.604 2.232a40.299 40.299 0 0 1-.366-.75 24.614 24.614 0 0 1 2.574-2.447c.49.018.749-.21.746-.712a22.114 22.114 0 0 1 2.398-2.263c.319-.013.515-.145.506-.49.782-.818 1.588-1.611 2.472-2.317.736.285.739-.211.748-.697"/>
        <path fill="#53E0BB" d="M44.318 35.52c3.796-1.479 7.518-3.133 11.22-4.827l.875-.414c.231-.099.466-.197.695-.296.17-.079.341-.157.508-.236a79.713 79.713 0 0 0 6.118-2.813c.118-.055.236-.11.354-.167 1.167-.546 2.331-1.087 3.497-1.634.292-.095.587-.194.88-.29-.074.445-.46.582-.769.787a3104.959 3104.959 0 0 1-36.654 23.997 650.505 650.505 0 0 0-8.059 5.252c-.71.474-1.13.443-1.616-.313-1.709-2.642-3.477-5.245-5.224-7.863 2.742-1.052 5.483-2.108 8.227-3.154 6.28-2.398 12.532-4.87 18.734-7.465.238-.106.47-.229.705-.34.17-.077.338-.148.51-.224"/>
        <g transform="translate(11 -.808)">
            <mask id="b" fill="#fff">
                <use xlink:href="#a"/>
            </mask>
            <path fill="#F98470" d="M6.71 35.305c-1.282 0-2.438.018-3.594-.005-.484-.011-.545-.491-.692-.81-3.33-7.226-3.236-14.415.536-21.425C7.557 4.513 17.351-.367 26.731 1.05c10.231 1.547 18.023 8.788 19.99 18.652.424 2.138.652 1.855-1.503 1.88-1.507.018-1.507.008-1.842-1.492-2.093-9.354-10.264-15.928-19.773-15.907-9.567.016-17.738 6.615-19.747 16.03-1.036 4.866-.263 9.499 2.137 13.855.212.382.436.757.717 1.236" mask="url(#b)"/>
        </g>
        <path fill="#FFD93B" d="M20.322 33.436c-4.143-5.291-4.26-13.67-.27-19.614 3.893-5.816 11.01-8.883 17.808-7.441 7.355 1.562 11.99 6.086 13.875 13.399.201.776.014.987-.752.91-.78-.073-1.69.169-2.322-.15-.628-.318-.536-1.338-.8-2.032-2.3-6.017-8.564-9.831-14.859-9.018-6.658.857-11.747 5.954-12.443 12.508-.229 2.139-.004 4.25.79 6.269.2.504.168.807-.282 1.178-1.555 1.282-1.532 1.304-.894 3.176.09.267.268.526.132.836l.017-.021z"/>
        <path fill="#FDFCFC" d="M68.465 24.844l-.88.289a.803.803 0 0 0-.266-.518c-.013-.105.47-.096.074-.267-.134-.06-.334.049-.508.078-2.657.49-5.316.974-7.975 1.468-9.6 1.777-19.197 3.566-28.798 5.349-2.743.506-5.49.993-8.236 1.487 2.614-2.621 5.388-5.074 8.092-7.6.264-.25.565-.26.889-.263 11.25-.191 22.498-.591 33.747-.897 1.805-.047 3.612-.004 5.396-.004-.387.386-1.057.48-1.535.878"/>
        <path fill="#C15EEA" d="M43.041 20.445c-.203-.01-.408-.039-.612-.02-.864.073-1.383-.28-1.883-1.042-1.701-2.585-4.951-3.694-7.914-2.839-3.024.876-5.147 3.536-5.242 6.678-.021.648-.183 1.095-.706 1.471-.52.371-.988.818-1.48 1.23-.765.638-.793.627-.986-.385-.425-2.21-.242-4.374.746-6.395 1.969-4.035 5.232-6.213 9.734-6.182 4.467.03 7.67 2.24 9.614 6.237.625 1.276.584 1.295-.835 1.26-.144-.004-.29 0-.436 0v-.013z"/>
        <path fill="#53E0BB" d="M21.876 32.73c2.746-.494 5.493-.98 8.236-1.486 9.601-1.785 19.199-3.573 28.798-5.35 2.659-.494 5.318-.976 7.975-1.468.174-.03.374-.137.508-.078.396.17-.087.162-.075.267-3.676.917-7.355 1.803-11.019 2.752-10.941 2.834-21.877 5.695-32.815 8.546-.222.055-.452.095-.681.145-.096-.902-.576-1.675-.824-2.526-.075-.26-.315-.503-.103-.802"/>
        <path fill="#FDFCFC" d="M1.44 50.89c.12.254.244.504.366.749-.53.204-1.06.408-1.806.693a7.377 7.377 0 0 1 1.44-1.442M10.884 41.963c-.01.486-.012.982-.748.697.2-.287.45-.517.748-.697M4.76 47.73c.003.503-.255.73-.746.713.195-.292.44-.532.746-.713M13.508 39.509c-.012.368-.212.539-.572.534.189-.18.382-.355.572-.534M7.664 44.978c.01.345-.187.477-.506.489.17-.163.337-.33.506-.49M20.306 33.456c.043.006.084.011.124.013l-.036.023c-.033-.013-.052-.039-.071-.057l-.017.021zM56.413 30.28c-.29.138-.582.275-.875.413.077-.594.42-.625.875-.414M57.616 29.747c-.167.08-.338.157-.508.236.067-.304.217-.423.508-.236M44.318 35.52c-.17.076-.34.147-.509.224.072-.303.228-.407.51-.224M64.088 26.768c-.117.057-.235.112-.354.167.063-.176.152-.29.354-.167"/>
    </g>
</svg>
