<svg xmlns="http://www.w3.org/2000/svg" width="12" height="13" viewBox="0 0 12 13">
    <path fill="none" fill-rule="evenodd" stroke="#FFF" d="M4.186 7.018a4.958 4.958 0 0 1-.614-.842 1.268 1.268 0 0 1-.49-.315 1.748 1.748 0 0 1-.428-.761c-.159-.551-.052-.99.294-1.23a.921.921 0 0 1 .009-.005C2.99 1.629 3.78.5 6 .5c2.218 0 3.01 1.13 3.043 3.365a.922.922 0 0 1 .008.005c.348.239.454.68.294 1.23a1.738 1.738 0 0 1-.43.764c-.161.16-.33.26-.486.312-.18.306-.389.592-.618.838.018.142.071.29.182.442.159.218.419.401.817.533 2.048.676 2.69 1.07 2.69 2.1v2.33H.5v-2.33c0-1.029.642-1.424 2.69-2.1.398-.132.658-.315.817-.532a.945.945 0 0 0 .18-.439z"/>
</svg>
