<svg xmlns="http://www.w3.org/2000/svg" width="17" height="11" viewBox="0 0 17 11">
    <g fill="none" fill-rule="evenodd">
        <path fill="#FFF" d="M4.1 0h-.005c-.375 0-.725.16-.961.442-.238.282-.337.66-.272 1.034l.753 3.486c.09.409.451.7.87.7h.873a.89.89 0 0 0 .869-1.076l-.748-3.45C5.372.504 4.775 0 4.101 0m0 .889a.54.54 0 0 1 .51.435l.747 3.45h-.873l-.747-3.45c-.042-.24.12-.435.357-.435h.006M13.764 0h-.005c-.674 0-1.27.503-1.386 1.172l-.74 3.414a.888.888 0 0 0 .869 1.076h.873a.89.89 0 0 0 .868-.7l.746-3.45a1.276 1.276 0 0 0-.262-1.068A1.247 1.247 0 0 0 13.764 0m0 .889c.238 0 .399.195.355.435l-.744 3.45h-.873l.746-3.45a.541.541 0 0 1 .51-.435h.006"/>
        <path stroke="#FFF" d="M15.526 5.185c.489 0 .889.4.889.889v3.242c0 .488-.4.888-.889.888H2.333a.892.892 0 0 1-.889-.888V6.074c0-.49.4-.89.89-.89h13.192z"/>
    </g>
</svg>
