<svg xmlns="http://www.w3.org/2000/svg" width="35" height="27" viewBox="0 0 35 27">
    <g fill="none" fill-rule="evenodd" stroke="#4D4D4D">
        <path stroke-linecap="round" stroke-linejoin="round" d="M19.539 25.785H1.463V1.463h18.076"/>
        <path d="M33.396 14.449c.025-.036.042-.075.062-.111.026-.05.056-.095.078-.144.02-.049.033-.102.048-.153.01-.041.027-.082.036-.123a1.44 1.44 0 0 0 0-.584c-.01-.04-.023-.08-.036-.12-.015-.052-.026-.106-.048-.157-.02-.047-.046-.088-.07-.131-.024-.043-.045-.085-.07-.126-.046-.068-.1-.13-.158-.189-.01-.01-.019-.024-.03-.035L24.766 4.28a1.533 1.533 0 0 0-2.141 0c-.59.58-.59 1.52 0 2.1l5.862 5.76H16.59c-.837 0-1.512.666-1.512 1.485 0 .821.675 1.487 1.512 1.487h11.896l-5.862 5.756c-.59.58-.59 1.52 0 2.101.296.29.682.436 1.07.436.387 0 .774-.146 1.07-.436l8.441-8.291c.07-.07.135-.146.19-.229z"/>
    </g>
</svg>
