<svg xmlns="http://www.w3.org/2000/svg" width="36" height="36" viewBox="0 0 36 36">
    <g fill="none" fill-rule="evenodd">
        <path fill="#FFF" d="M35.5 18c0 9.666-7.835 17.5-17.5 17.5S.5 27.666.5 18 8.335.5 18 .5 35.5 8.334 35.5 18"/>
        <path stroke="#4DBEA4" d="M35.5 18c0 9.666-7.835 17.5-17.5 17.5S.5 27.666.5 18 8.335.5 18 .5 35.5 8.334 35.5 18z"/>
        <path fill="#4DBEA4" d="M31.112 29.069c0-2.077-2.224-2.967-6.154-4.265-3.93-1.297-3.512-4.317-3.512-4.317 1.067-1.046 1.957-2.46 2.528-3.814l-.284.95s1.28-.123 1.825-2.001c.544-1.88-.654-1.93-.654-1.93s-.188.039-.188-.547c0-4.37-.855-7.914-6.673-7.914-5.817 0-6.673 3.544-6.673 7.914 0 .586-.188.548-.188.548s-1.196.049-.653 1.929c.543 1.878 1.825 2 1.825 2l-.283-.95c.57 1.356 1.459 2.769 2.549 3.815-.023 0 .396 3.02-3.535 4.317-3.93 1.298-6.154 2.188-6.154 4.265l.037.56A17.461 17.461 0 0 0 18 35.499a17.45 17.45 0 0 0 13.112-5.914v-.516z"/>
    </g>
</svg>
